<svg xmlns="http://www.w3.org/2000/svg" shape-rendering="geometricPrecision" text-rendering="geometricPrecision" image-rendering="optimizeQuality" fill-rule="evenodd" clip-rule="evenodd" viewBox="0 0 512 350.259"><path fill="#DC5045" d="M235.685 65.227L46.41 49.97C21.075 47.927-2.386 70.906.195 96.184l15.258 149.398c2.581 25.276 20.808 46.211 46.214 46.211h48.071l71.816 58.466-5.192-58.466h59.323c25.411 0 46.215-20.793 46.215-46.211v-134.14c0-25.421-20.88-44.172-46.215-46.215z"/><path fill="#2278D2" d="M276.315 15.385L465.59.127c25.335-2.042 48.796 20.936 46.215 46.214l-15.258 149.398c-2.581 25.277-20.807 46.211-46.215 46.211h-50.099l-71.816 58.466 5.191-58.466h-57.293c-25.411 0-46.215-20.793-46.215-46.211V61.599c0-25.421 20.879-44.172 46.215-46.214z"/><path fill="#fff" d="M88.292 119.662h40.712V108.19h18.188v11.472h40.859v18.833h-8.388c-1.513 11.897-4.839 21.7-10.491 32.267-4.781 8.924-10.954 17.522-18.123 25.762 11.441 13.684 25.645 25.588 42.556 36.44l-9.354 14.58c-17.755-11.391-32.833-23.934-45.224-38.382-11.084 10.723-23.676 20.712-36.865 29.834l-9.833-14.231c13.052-9.031 25.451-18.894 36.12-29.412-9.833-14.386-17.363-30.532-22.574-49.1l16.686-4.679c4.272 15.23 10.263 28.636 17.963 40.636 5.253-6.359 9.796-12.885 13.384-19.586 4.401-8.233 6.765-15.04 8.255-24.129H88.292v-18.833zM396.834 158.594h-52.699l-7.476 25.514h-30.38c12.19-32.265 26.267-71.008 38.463-103.289 4.392-11.659 9.391-30.98 25.365-30.98 16.559 0 22.058 17.702 26.665 29.932l39.049 104.864h-31.278l-7.709-26.041zm-6.101-24.81l-20.177-54.492-20.252 54.492h40.429z"/></svg>