<?xml version="1.0" encoding="UTF-8"?>
<!DOCTYPE svg PUBLIC "-//W3C//DTD SVG 20010904//EN"
              "http://www.w3.org/TR/2001/REC-SVG-20010904/DTD/svg10.dtd">
<svg xmlns="http://www.w3.org/2000/svg"
     width="24px" height="24px"
     fill="currentColor" viewBox="0 0 300 300">
  <rect width="300" height="300" fill="#233d4d"/>
<path id="Selection"
        fill="#7AFDD6" stroke="#7AFDD6" stroke-width="0"
        d="
           M 137.50,23.62
           C 108.00,37.50 127.25,51.75 115.50,59.25
             104.25,66.88 90.00,28.50 56.04,56.09
             30.62,83.12 61.25,127.75 95.00,113.88
             128.25,96.25 109.25,75.75 120.50,69.75
             129.25,63.75 129.25,76.50 147.00,76.00
             188.00,70.25 172.75,10.25 137.50,23.62 Z" />
<path id="Selection2"
        fill="#7AFDD6" stroke="#7AFDD6" stroke-width="0"
        d="M 237.25,117.25
           C 235.62,104.38 252.25,106.75 249.75,78.50
             244.00,31.25 165.25,33.75 177.50,93.62
             191.38,132.00 221.75,108.50 227.00,123.00
             230.75,132.50 216.00,131.62 219.50,154.50
             227.00,184.25 278.00,177.75 272.75,142.50
             264.00,112.00 240.75,127.75 237.25,117.25 Z" />
<path id="Selection3"
        fill="#7AFDD6" stroke="#7AFDD6" stroke-width="0"
        d="M 114.50,207.25
           C 103.25,167.25 72.50,182.50 67.00,174.75
             62.75,166.75 75.00,168.00 74.00,147.00
             70.00,111.50 21.88,116.50 22.88,149.50
             29.12,184.62 51.62,168.00 57.50,179.50
             61.12,186.11 42.00,193.00 45.00,216.88
             57.00,272.50 122.25,249.00 114.50,207.25 Z" />
<path id="Selection4"
        fill="#7AFDD6" stroke="#7AFDD6" stroke-width="0"
        d="M 172.75,228.00
           C 164.00,233.12 163.00,221.50 143.38,222.12
             112.50,222.38 111.12,275.63 146.12,274.25
             184.00,271.12 165.00,241.25 178.50,237.75
             188.50,233.50 188.00,252.25 215.25,250.00
             268.62,244.62 254.50,170.00 206.50,178.00
             162.75,188.75 183.50,221.25 172.75,228.00 Z" />

  <circle cx="100.38" cy="24" r="10" fill="#7AFDD6" stroke="#7AFDD6" stroke-width="0"/>
  <circle cx="193.25" cy="25" r="14" fill="#7AFDD6" stroke="#7AFDD6" stroke-width="0"/>
  <circle cx="22.20" cy="103.5" r="14" fill="#7AFDD6" stroke="#7AFDD6" stroke-width="0"/>
  <circle cx="270.00" cy="102.5" r="10" fill="#7AFDD6" stroke="#7AFDD6" stroke-width="0"/>
  <circle cx="150" cy="150" r="46" fill="#7AFDD6" stroke="#7AFDD6" stroke-width="0"/>
  
  <circle cx="22.62" cy="194.75" r="10" fill="#7AFDD6" stroke="#7AFDD6" stroke-width="0"/>  
  <circle cx="270" cy="193" r="14" fill="#7AFDD6" stroke="#7AFDD6" stroke-width="0"/>
  <circle cx="195.12" cy="273.5" r="10" fill="#7AFDD6" stroke="#7AFDD6" stroke-width="0"/>
  <circle cx="100.5" cy="272" r="14" fill="#7AFDD6" stroke="#7AFDD6" stroke-width="0"/>
  
  <text x="152" y="173.5" text-anchor="middle" font-size="70" font-weight="bold" font-family="Arial" fill="#233d4d">D</text>
</svg>
